<svg width="180" height="189" viewBox="0 0 180 189" fill="none" xmlns="http://www.w3.org/2000/svg">
<path d="M120.469 90.625V125.156C120.469 132.188 114.977 137.813 108.281 137.813H114.375C121.071 137.813 126.562 132.188 126.562 125.156V87.1875L120.469 90.625Z" fill="#292B2C"/>
<path fill-rule="evenodd" clip-rule="evenodd" d="M11.25 120.938V111.094H15.4688V120.938H11.25Z" fill="black"/>
<path fill-rule="evenodd" clip-rule="evenodd" d="M11.25 137.813V127.969H15.4688V137.813H11.25Z" fill="black"/>
<path fill-rule="evenodd" clip-rule="evenodd" d="M16.875 122.344H26.7188V126.562H16.875V122.344Z" fill="black"/>
<path fill-rule="evenodd" clip-rule="evenodd" d="M0 122.344H9.84375V127.969H0V122.344Z" fill="black"/>
<path fill-rule="evenodd" clip-rule="evenodd" d="M11.25 120.938V111.094H15.4688V120.938H11.25Z" fill="black"/>
<path fill-rule="evenodd" clip-rule="evenodd" d="M11.25 137.813V127.969H15.4688V137.813H11.25Z" fill="black"/>
<path fill-rule="evenodd" clip-rule="evenodd" d="M108.373 29.5308L108.281 19.7224L113.814 19.687L113.906 29.4954L108.373 29.5308Z" fill="black"/>
<path fill-rule="evenodd" clip-rule="evenodd" d="M108.281 46.4058V36.562H113.906V46.4058H108.281Z" fill="black"/>
<path fill-rule="evenodd" clip-rule="evenodd" d="M113.906 31.0064L123.715 30.9373L123.75 35.0868L113.942 35.156L113.906 31.0064Z" fill="black"/>
<path fill-rule="evenodd" clip-rule="evenodd" d="M97.0312 30.9373H106.875V35.156H97.0312V30.9373Z" fill="black"/>
<path fill-rule="evenodd" clip-rule="evenodd" d="M108.373 29.5308L108.281 19.7224L113.814 19.687L113.906 29.4954L108.373 29.5308Z" fill="black"/>
<path fill-rule="evenodd" clip-rule="evenodd" d="M108.281 46.4058V36.562H113.906V46.4058H108.281Z" fill="black"/>
<path fill-rule="evenodd" clip-rule="evenodd" d="M154.688 47.8125V37.9688H160.312V47.8125H154.688Z" fill="black"/>
<path fill-rule="evenodd" clip-rule="evenodd" d="M154.688 64.6875V54.8438H160.312V64.6875H154.688Z" fill="black"/>
<path fill-rule="evenodd" clip-rule="evenodd" d="M160.312 49.219H170.156V53.4377H160.312V49.219Z" fill="black"/>
<path fill-rule="evenodd" clip-rule="evenodd" d="M143.438 49.219H153.281V53.4377H143.438V49.219Z" fill="black"/>
<path fill-rule="evenodd" clip-rule="evenodd" d="M154.688 47.8125V37.9688H160.312V47.8125H154.688Z" fill="black"/>
<path fill-rule="evenodd" clip-rule="evenodd" d="M154.688 64.6875V54.8438H160.312V64.6875H154.688Z" fill="black"/>
<path fill-rule="evenodd" clip-rule="evenodd" d="M153.281 139.58C141.039 139.58 131.143 149.543 131.143 161.719C131.143 173.966 141.034 183.857 153.281 183.857C165.528 183.857 175.42 173.966 175.42 161.719C175.42 149.543 165.524 139.58 153.281 139.58ZM126.562 161.719C126.562 147.023 138.5 135 153.281 135C168.063 135 180 147.023 180 161.719C180 176.496 168.058 188.438 153.281 188.438C138.504 188.438 126.562 176.496 126.562 161.719Z" fill="black"/>
<path fill-rule="evenodd" clip-rule="evenodd" d="M153.559 150.856C147.424 150.856 142.513 155.727 142.513 161.68C142.513 167.719 147.433 172.581 153.559 172.581C158.645 172.581 162.924 169.171 164.221 164.595L168.75 165.828C166.913 172.307 160.851 177.187 153.559 177.187C144.801 177.187 137.812 170.227 137.812 161.68C137.812 153.201 144.81 146.25 153.559 146.25C160.096 146.25 165.712 150.133 168.104 155.723L163.77 157.504C162.088 153.575 158.147 150.856 153.559 150.856Z" fill="black"/>
<path fill-rule="evenodd" clip-rule="evenodd" d="M98.4375 126.81C98.4375 101.808 119.008 81.5627 144.413 81.5627H161.216C166.954 81.5627 171.562 86.204 171.562 91.7454V142.352C171.562 143.23 171.054 144.031 170.253 144.416C169.451 144.801 168.497 144.703 167.794 144.164C163.63 140.968 158.35 139.168 152.568 139.515L152.562 139.516C141.729 140.139 132.692 148.681 131.565 159.28C130.998 164.647 132.344 169.631 135.007 173.632C135.477 174.338 135.516 175.24 135.108 175.983C134.701 176.725 133.913 177.188 133.055 177.188H100.771C99.4824 177.188 98.4375 176.159 98.4375 174.891V126.81ZM144.413 86.1564C121.586 86.1564 103.105 104.345 103.105 126.81V172.594H129.123C127.233 168.46 126.401 163.746 126.922 158.805L126.922 158.804C128.285 145.977 139.161 135.687 152.286 134.93C157.615 134.611 162.602 135.809 166.895 138.108V91.7454C166.895 88.7119 164.347 86.1564 161.216 86.1564H144.413Z" fill="black"/>
<path fill-rule="evenodd" clip-rule="evenodd" d="M146.25 120.938V111.094H150.469V120.938H146.25Z" fill="black"/>
<path fill-rule="evenodd" clip-rule="evenodd" d="M146.25 105.469V84.375H150.469V105.469H146.25Z" fill="black"/>
<path fill-rule="evenodd" clip-rule="evenodd" d="M129.375 87.1875V124.484C129.375 132.672 122.706 139.219 114.581 139.219H101.25V134.614H114.581C120.171 134.614 124.752 130.11 124.752 124.484V87.1875H129.375Z" fill="black"/>
<path fill-rule="evenodd" clip-rule="evenodd" d="M13.0054 164.244C13.418 163.55 14.1679 163.125 14.9779 163.125H72.2095C73.0196 163.125 73.7694 163.55 74.1821 164.244L79.8365 173.745C80.256 174.45 80.2632 175.325 79.8554 176.036C79.4475 176.748 78.6874 177.188 77.8639 177.188H9.32357C8.50013 177.188 7.73996 176.748 7.33214 176.037C6.92432 175.325 6.93151 174.45 7.35099 173.745L13.0054 164.244ZM16.2848 167.686L13.3445 172.627H73.843L70.9027 167.686H16.2848Z" fill="black"/>
<path fill-rule="evenodd" clip-rule="evenodd" d="M23.9062 156.947C23.9062 155.699 24.9476 154.687 26.2322 154.687H62.3616C63.6461 154.687 64.6875 155.699 64.6875 156.947V165.083C64.6875 166.332 63.6461 167.344 62.3616 167.344H26.2322C24.9476 167.344 23.9062 166.332 23.9062 165.083V156.947ZM28.5581 159.207V162.823H60.0356V159.207H28.5581Z" fill="black"/>
<path fill-rule="evenodd" clip-rule="evenodd" d="M109.688 83.8344C109.688 82.5798 110.692 81.5627 111.931 81.5627H144.007C145.246 81.5627 146.25 82.5798 146.25 83.8344C146.25 85.0889 145.246 86.106 144.007 86.106C131.84 86.106 120.941 91.6911 113.645 100.444C113.037 101.173 112.045 101.44 111.16 101.112C110.276 100.784 109.688 99.9322 109.688 98.9785V83.8344ZM124.631 86.106H114.174V93.3396C117.284 90.4536 120.802 88.008 124.631 86.106Z" fill="black"/>
<path fill-rule="evenodd" clip-rule="evenodd" d="M61.4477 4.58383C50.2828 4.58383 41.1709 13.6371 41.1709 24.8291V154.322H47.3154V24.8291C47.3154 17.0889 53.6273 10.6956 61.4477 10.6956C69.2681 10.6956 75.58 17.0889 75.58 24.8291V81.745C75.58 88.6538 81.2305 94.2742 88.1762 94.2742H109.298V88.1624H88.1762C84.704 88.1624 81.7245 85.3302 81.7245 81.745V24.8291C81.7245 13.6371 72.6126 4.58383 61.4477 4.58383ZM36.5625 24.8291C36.5625 11.1156 47.7275 0 61.4477 0C75.1679 0 86.3329 11.1156 86.3329 24.8291V81.745C86.3329 82.7438 87.1937 83.5786 88.1762 83.5786H111.602C112.875 83.5786 113.906 84.6047 113.906 85.8705V96.5661C113.906 97.8319 112.875 98.858 111.602 98.858H88.1762C78.6854 98.858 70.9717 91.1853 70.9717 81.745V24.8291C70.9717 19.5818 66.6843 15.2794 61.4477 15.2794C56.2111 15.2794 51.9237 19.5818 51.9237 24.8291V156.614C51.9237 157.88 50.8921 158.906 49.6195 158.906H38.8667C37.5941 158.906 36.5625 157.88 36.5625 156.614V24.8291Z" fill="black"/>
</svg>
