<svg width="217" height="189" viewBox="0 0 217 189" fill="none" xmlns="http://www.w3.org/2000/svg">
<path d="M198.961 98.2246L188.906 186.207H196.355L206.41 98.2246H198.961Z" fill="#292B2C"/>
<path fill-rule="evenodd" clip-rule="evenodd" d="M153.509 23.276L163.285 23.1829L163.32 26.9068L153.544 26.9999L153.509 23.276Z" fill="black"/>
<path fill-rule="evenodd" clip-rule="evenodd" d="M136.937 23.369L146.619 23.2759L146.655 26.9998L136.972 27.0929L136.937 23.369Z" fill="black"/>
<path fill-rule="evenodd" clip-rule="evenodd" d="M151.944 28.5652L152.037 38.341L148.313 38.3765L148.22 28.6006L151.944 28.5652Z" fill="black"/>
<path fill-rule="evenodd" clip-rule="evenodd" d="M151.851 11.9924L151.944 21.6752L148.221 21.711L148.127 12.0282L151.851 11.9924Z" fill="black"/>
<path fill-rule="evenodd" clip-rule="evenodd" d="M153.509 23.276L163.285 23.1829L163.32 26.9068L153.544 26.9999L153.509 23.276Z" fill="black"/>
<path fill-rule="evenodd" clip-rule="evenodd" d="M136.937 23.369L146.619 23.2759L146.655 26.9998L136.972 27.0929L136.937 23.369Z" fill="black"/>
<path fill-rule="evenodd" clip-rule="evenodd" d="M93.5513 51.2069L106.586 51.1138L106.619 55.7688L93.5845 55.8619L93.5513 51.2069Z" fill="black"/>
<path fill-rule="evenodd" clip-rule="evenodd" d="M71.1304 51.3H84.1648V55.9552H71.1304V51.3Z" fill="black"/>
<path fill-rule="evenodd" clip-rule="evenodd" d="M91.241 58.2664L91.3341 71.3008L86.679 71.3341L86.5859 58.2996L91.241 58.2664Z" fill="black"/>
<path fill-rule="evenodd" clip-rule="evenodd" d="M91.055 35.7351L91.148 48.8627L86.493 48.8957L86.3999 35.7681L91.055 35.7351Z" fill="black"/>
<path fill-rule="evenodd" clip-rule="evenodd" d="M93.5513 51.2069L106.586 51.1138L106.619 55.7688L93.5845 55.8619L93.5513 51.2069Z" fill="black"/>
<path fill-rule="evenodd" clip-rule="evenodd" d="M71.1304 51.3H84.1648V55.9552H71.1304V51.3Z" fill="black"/>
<path fill-rule="evenodd" clip-rule="evenodd" d="M0 124.386C0 122.843 1.25051 121.593 2.7931 121.593H93.9413C95.4839 121.593 96.7344 122.843 96.7344 124.386V135.558C96.7344 137.101 95.4839 138.351 93.9413 138.351H2.7931C1.25051 138.351 0 137.101 0 135.558V124.386ZM5.58621 127.179V132.765H91.1482V127.179H5.58621Z" fill="black"/>
<path fill-rule="evenodd" clip-rule="evenodd" d="M0 168.703V135.558H5.58621V168.703C5.58621 176.843 12.1564 183.413 20.2965 183.413H97.4484C93.5654 179.718 91.1482 174.498 91.1482 168.703V135.558H96.7344V168.703C96.7344 176.843 103.305 183.413 111.445 183.413H114.052C115.594 183.413 116.845 184.664 116.845 186.206C116.845 187.749 115.594 188.999 114.052 188.999H20.2965C9.07119 188.999 0 179.928 0 168.703Z" fill="black"/>
<path fill-rule="evenodd" clip-rule="evenodd" d="M61.169 153.807V167.679C61.169 173.077 63.5835 178.142 67.7653 181.52L67.779 181.531L70.8514 184.045L67.3141 188.368L64.2553 185.866C64.253 185.864 64.2507 185.862 64.2484 185.86C58.7517 181.417 55.5828 174.754 55.5828 167.679V153.807H61.169Z" fill="black"/>
<path fill-rule="evenodd" clip-rule="evenodd" d="M21.3206 153.807V167.679C21.3206 173.049 23.8059 178.124 28.0101 181.52C28.0256 181.533 28.041 181.545 28.0562 181.558L31.0356 184.072L27.4332 188.341L24.4761 185.846C19.0118 181.421 15.7344 174.775 15.7344 167.679V153.807H21.3206Z" fill="black"/>
<path fill-rule="evenodd" clip-rule="evenodd" d="M35.2861 160.138V152.596H40.8723V160.138H35.2861Z" fill="black"/>
<path fill-rule="evenodd" clip-rule="evenodd" d="M35.2861 152.596V135.558H40.8723V152.596H35.2861Z" fill="black"/>
<path fill-rule="evenodd" clip-rule="evenodd" d="M72.4353 160.137V135.558H78.0215V160.137H72.4353Z" fill="black"/>
<path fill-rule="evenodd" clip-rule="evenodd" d="M30.1655 111.91C30.1655 110.368 31.416 109.117 32.9586 109.117H63.7759C65.3185 109.117 66.569 110.368 66.569 111.91V124.386C66.569 125.929 65.3185 127.179 63.7759 127.179H32.9586C31.416 127.179 30.1655 125.929 30.1655 124.386V111.91ZM35.7517 114.703V121.593H60.9828V114.703H35.7517Z" fill="black"/>
<path fill-rule="evenodd" clip-rule="evenodd" d="M39.7551 8.65862C39.7551 3.88659 43.5835 0 48.3207 0C53.1219 0 56.9793 3.85742 56.9793 8.65862V111.91C56.9793 113.453 55.7287 114.703 54.1862 114.703H42.5482C41.0056 114.703 39.7551 113.453 39.7551 111.91V8.65862ZM48.3207 5.5862C46.7267 5.5862 45.3413 6.91342 45.3413 8.65862V109.117H51.3931V8.65862C51.3931 6.94258 50.0367 5.5862 48.3207 5.5862Z" fill="black"/>
<path fill-rule="evenodd" clip-rule="evenodd" d="M119.917 163.676H94.593V158.09H119.917C128.549 158.09 135.372 165.033 135.372 173.545C135.372 182.057 128.549 189 119.917 189H110.793V183.414H119.917C125.437 183.414 129.786 178.998 129.786 173.545C129.786 168.091 125.437 163.676 119.917 163.676Z" fill="black"/>
<path fill-rule="evenodd" clip-rule="evenodd" d="M98.3171 85.0036C98.3171 83.461 99.5677 82.2104 101.11 82.2104H212.462C214.004 82.2104 215.255 83.461 215.255 85.0036V98.2242C215.255 99.7668 214.004 101.017 212.462 101.017H101.11C99.5677 101.017 98.3171 99.7668 98.3171 98.2242V85.0036ZM103.903 87.7967V95.4311H209.669V87.7967H103.903Z" fill="black"/>
<path fill-rule="evenodd" clip-rule="evenodd" d="M104.515 96.3682C105.046 95.772 105.805 95.4309 106.603 95.4309H206.41C207.206 95.4309 207.964 95.7705 208.494 96.3645C209.024 96.9585 209.275 97.7503 209.185 98.5412L199.13 186.524C198.968 187.935 197.774 189 196.355 189H116.937V183.414H193.862L203.279 101.017H109.745L116.546 158.693L110.998 159.348L103.829 98.5511C103.736 97.7588 103.985 96.9644 104.515 96.3682Z" fill="black"/>
<path fill-rule="evenodd" clip-rule="evenodd" d="M118.402 66.6625C121.149 58.6204 128.753 52.8828 137.7 52.8828C144.194 52.8828 149.946 55.921 153.669 60.6846C155.648 59.8101 157.831 59.307 160.138 59.307C168.979 59.307 176.187 66.3674 176.425 75.1511C176.947 75.2899 177.459 75.4549 177.961 75.6445C180.21 69.3664 186.243 64.8932 193.283 64.8932C202.299 64.8932 209.483 72.2207 209.483 81.1863C209.483 82.7601 209.257 84.303 208.806 85.8061L208.209 87.7966H102.876L102.459 85.5031C102.305 84.6584 102.228 83.8085 102.228 82.9552C102.228 74.0039 109.466 66.7264 118.402 66.6625ZM137.7 58.469C130.571 58.469 124.619 63.4794 123.21 70.2136L122.643 72.9232L119.928 72.3803C119.501 72.2949 119.034 72.2483 118.521 72.2483C112.865 72.2483 108.223 76.6511 107.839 82.2104H178.463L178.274 82.0779C176.803 81.0479 175.041 80.3913 173.229 80.2463L170.097 79.9957L170.713 76.9144C170.802 76.4702 170.845 76.033 170.845 75.6001C170.845 69.6944 166.044 64.8932 160.138 64.8932C158.029 64.8932 156.039 65.5456 154.309 66.6741L151.86 68.2707L150.376 65.7526C147.783 61.3513 143.09 58.469 137.7 58.469ZM182.45 82.2104H203.847C203.88 81.8723 203.897 81.531 203.897 81.1863C203.897 75.2553 199.163 70.4794 193.283 70.4794C187.737 70.4794 183.17 74.6951 182.656 80.0563L182.45 82.2104Z" fill="black"/>
<path fill-rule="evenodd" clip-rule="evenodd" d="M205.572 37.4277C201.573 37.4277 198.403 40.5975 198.403 44.5967C198.403 48.4903 201.56 51.6726 205.572 51.6726C209.478 51.6726 212.648 48.5028 212.648 44.5967C212.648 40.5849 209.466 37.4277 205.572 37.4277ZM194.679 44.5967C194.679 38.5407 199.516 33.7036 205.572 33.7036C211.548 33.7036 216.372 38.5533 216.372 44.5967C216.372 50.5596 211.535 55.3967 205.572 55.3967C199.529 55.3967 194.679 50.5721 194.679 44.5967Z" fill="black"/>
<path fill-rule="evenodd" clip-rule="evenodd" d="M181.365 47.5759C178.891 47.5759 176.896 49.5928 176.896 52.138C176.896 54.6476 178.855 56.607 181.365 56.607C183.91 56.607 185.927 54.6123 185.927 52.138C185.927 49.6285 183.874 47.5759 181.365 47.5759ZM173.172 52.138C173.172 47.6074 176.763 43.8518 181.365 43.8518C185.931 43.8518 189.651 47.5717 189.651 52.138C189.651 56.7396 185.896 60.3311 181.365 60.3311C176.799 60.3311 173.172 56.7043 173.172 52.138Z" fill="black"/>
<path fill-rule="evenodd" clip-rule="evenodd" d="M104.255 96.7111C104.769 95.9131 105.654 95.4309 106.603 95.4309H205.106C206.056 95.4309 206.94 95.9131 207.454 96.7111C207.968 97.5091 208.042 98.5137 207.65 99.3782L202.627 110.448C202.626 110.449 202.625 110.45 202.625 110.452C194.351 128.866 176.036 140.679 155.855 140.679C135.674 140.679 117.359 128.867 109.085 110.453L104.059 99.3782C103.667 98.5137 103.741 97.5091 104.255 96.7111ZM110.938 101.017L114.178 108.159C121.547 124.563 137.865 135.093 155.855 135.093C173.844 135.093 190.162 124.563 197.531 108.159L197.535 108.149L200.772 101.017H110.938Z" fill="black"/>
<path fill-rule="evenodd" clip-rule="evenodd" d="M151.759 167.772H198.124V173.359H151.759V167.772Z" fill="black"/>
<path fill-rule="evenodd" clip-rule="evenodd" d="M134.124 67.4822C132.781 68.7473 131.958 70.7816 131.833 73.4528L128.113 73.2784C128.267 69.9909 129.306 66.9045 131.571 64.7713C133.876 62.6001 137.157 61.6905 141.196 62.2083L140.722 65.9022C137.499 65.4889 135.427 66.2552 134.124 67.4822Z" fill="black"/>
</svg>
