<svg width="180" height="148" viewBox="0 0 180 148" fill="none" xmlns="http://www.w3.org/2000/svg">
<path d="M83.8677 131.259H90.0003V16.3411H83.8677V131.259Z" fill="#292B2C"/>
<path d="M156.878 52.027V131.259H163.508V44.2539" fill="#292B2C"/>
<path d="M163.508 37.8054V16.3411H156.878V30.6506" fill="#292B2C"/>
<path fill-rule="evenodd" clip-rule="evenodd" d="M152.173 12.3015L155.986 26.3702C157.397 31.6735 161.335 35.725 166.339 37.1585C166.34 37.1587 166.341 37.1588 166.341 37.159L179.563 40.917L166.371 44.9788L166.363 44.9812C161.378 46.4879 157.586 50.6035 156.243 56.0116L156.242 56.0147L152.715 70.1102L148.904 56.0499L148.902 56.0415C147.484 50.7115 143.616 46.6036 138.575 45.2605L138.563 45.2572L125.326 41.4948L138.525 37.4305C143.517 35.9217 147.38 31.7159 148.642 26.4177L148.644 26.4073L152.173 12.3015ZM152.301 25.5034L151.852 27.2972C150.293 33.8288 145.542 38.9806 139.434 40.8285C139.432 40.8289 139.431 40.8293 139.43 40.8297L137.712 41.3586L139.392 41.8362C145.615 43.4995 150.359 48.5735 152.09 55.0731C152.091 55.0746 152.091 55.0761 152.091 55.0776L152.588 56.9083L153.038 55.1075C153.038 55.1069 153.038 55.1063 153.039 55.1057C154.679 48.5032 159.337 43.434 165.455 41.5833C165.456 41.5829 165.457 41.5824 165.459 41.582L167.177 41.0531L165.484 40.5721L165.481 40.5712C159.382 38.8248 154.537 33.8687 152.798 27.3385C152.798 27.3371 152.798 27.3356 152.797 27.3342L152.301 25.5034Z" fill="black"/>
<path fill-rule="evenodd" clip-rule="evenodd" d="M0 2.64991C0 1.18641 1.1131 0 2.48619 0H177.514C178.887 0 180 1.18641 180 2.64991V144.95C180 146.414 178.887 147.6 177.514 147.6H2.48619C1.1131 147.6 0 146.414 0 144.95V2.64991ZM4.97238 5.29982V142.3H175.028V5.29982H4.97238Z" fill="black"/>
<path fill-rule="evenodd" clip-rule="evenodd" d="M14.0879 16.3411C14.0879 14.8776 15.201 13.6912 16.5741 13.6912H163.508C164.881 13.6912 165.994 14.8776 165.994 16.3411V37.8054H161.022V18.991H19.0603V128.609H161.022V45.1367H165.994V131.259C165.994 132.722 164.881 133.909 163.508 133.909H16.5741C15.201 133.909 14.0879 132.722 14.0879 131.259V16.3411Z" fill="black"/>
<path fill-rule="evenodd" clip-rule="evenodd" d="M87.5137 131.259V16.3411H92.486V131.259H87.5137Z" fill="black"/>
<path fill-rule="evenodd" clip-rule="evenodd" d="M91.7927 51.5659L77.6214 67.2887L74.0356 63.617L88.2069 47.8943L91.7927 51.5659Z" fill="black"/>
<path fill-rule="evenodd" clip-rule="evenodd" d="M73.5665 71.7868L66.6881 79.4715L63.0903 75.8131L69.9688 68.1284L73.5665 71.7868Z" fill="black"/>
<path fill-rule="evenodd" clip-rule="evenodd" d="M61.2136 85.4829L18.3683 133.093C17.6657 133.874 16.5884 134.121 15.6466 133.717C14.7049 133.314 14.0879 132.34 14.0879 131.259V104.671C14.0879 103.98 14.341 103.317 14.7934 102.822L27.39 89.0423L30.9514 92.7409L19.0603 105.749V124.668L57.6251 81.8142L61.2136 85.4829Z" fill="black"/>
<path fill-rule="evenodd" clip-rule="evenodd" d="M33.0215 82.776L88.2148 22.093L91.785 25.7819L36.5916 86.465L33.0215 82.776Z" fill="black"/>
<path fill-rule="evenodd" clip-rule="evenodd" d="M32.9326 57.4321L60.6122 26.7815L64.1947 30.4568L36.5151 61.1074L32.9326 57.4321Z" fill="black"/>
<path fill-rule="evenodd" clip-rule="evenodd" d="M64.1626 22.998L71.704 14.5183L75.3127 18.1643L67.7713 26.644L64.1626 22.998Z" fill="black"/>
<path fill-rule="evenodd" clip-rule="evenodd" d="M138.94 80.8111L128.664 92.1174L125.093 88.4299L135.369 77.1235L138.94 80.8111Z" fill="black"/>
<path fill-rule="evenodd" clip-rule="evenodd" d="M125.274 95.9071L119.307 102.532L115.72 98.8616L121.687 92.2368L125.274 95.9071Z" fill="black"/>
<path fill-rule="evenodd" clip-rule="evenodd" d="M88.2159 102.826L137.608 48.5908L141.176 52.2822L92.486 105.746V124.669L111.659 103.367L115.247 107.036L91.794 133.093C91.0913 133.874 90.014 134.121 89.0723 133.717C88.1306 133.314 87.5137 132.341 87.5137 131.259V104.671C87.5137 103.982 87.7656 103.32 88.2159 102.826Z" fill="black"/>
<path fill-rule="evenodd" clip-rule="evenodd" d="M154.098 30.4854L161.722 22.094L165.294 25.7809L157.67 34.1723L154.098 30.4854Z" fill="black"/>
<path fill-rule="evenodd" clip-rule="evenodd" d="M104.201 53.6363L110.168 47.0115L113.755 50.6818L107.788 57.3066L104.201 53.6363Z" fill="black"/>
<path fill-rule="evenodd" clip-rule="evenodd" d="M114.317 42.4127L133.129 21.655L136.705 25.3371L117.893 46.0948L114.317 42.4127Z" fill="black"/>
<path d="M131.188 77.3771L135.912 75.7872C139.392 74.6389 142.044 71.5474 142.873 67.7492L143.95 62.626L145.442 67.6608C146.602 71.3706 149.42 74.1973 152.984 74.9922L157.79 76.2289L153.149 77.8188C149.669 78.9671 147.017 82.0587 146.188 85.8569L145.111 90.98L143.536 86.0335C142.459 82.2353 139.558 79.4971 135.995 78.6137L131.188 77.3771Z" fill="white"/>
<path fill-rule="evenodd" clip-rule="evenodd" d="M143.678 55.8423L147.018 67.1154C148.008 70.2648 150.38 72.6071 153.323 73.2636L153.348 73.2692L163.913 75.9874L153.648 79.5041L153.639 79.5069C150.737 80.4645 148.504 83.0529 147.804 86.251L145.437 97.5048L141.957 86.5736L141.949 86.5453C141.053 83.3858 138.638 81.0832 135.619 80.335L135.612 80.3333L125.008 77.605L135.421 74.1001C138.324 73.1425 140.557 70.5542 141.257 67.3562L143.678 55.8423ZM144.215 69.196C143.12 72.8032 140.574 75.7494 137.261 77.1521C140.664 78.2848 143.468 80.9343 144.805 84.5487C145.87 80.9 148.415 77.91 151.741 76.4797C148.311 75.3994 145.596 72.6829 144.215 69.196Z" fill="black"/>
</svg>
