<svg width="440" height="99" viewBox="0 0 440 99" fill="none" xmlns="http://www.w3.org/2000/svg">
<path d="M55.4794 80.5305C56.4997 80.628 57.5121 80.6781 58.5192 80.6781C74.3382 80.6781 87.9152 68.6899 89.4789 52.7136C90.2845 44.4816 87.8198 36.4315 82.5353 30.0446C77.2535 23.6578 69.7852 19.6986 61.5086 18.8973C60.4353 18.7945 59.4865 19.5721 59.3805 20.637C59.2745 21.7019 60.0589 22.6482 61.1296 22.7537C68.37 23.4548 74.9027 26.9184 79.5247 32.5066C84.1466 38.0947 86.3039 45.1379 85.599 52.3393C84.2314 66.3176 72.3532 76.8059 58.5112 76.8059C57.6313 76.8059 56.7462 76.7637 55.8531 76.6768C42.8936 75.4221 32.9235 65.279 31.4447 52.9165H27.525C29.0224 67.2533 40.5057 79.0807 55.4794 80.5305Z" fill="#090916"/>
<path d="M63.2921 0.661858C58.8981 0.237474 54.4828 0.390358 50.171 1.11787C49.1109 1.29712 48.398 2.29613 48.5755 3.3505C48.7557 4.40487 49.7602 5.11393 50.8203 4.93733C54.7929 4.26516 58.861 4.12546 62.9131 4.51821C87.9682 6.94326 106.369 29.1905 103.93 54.1105C102.748 66.183 96.9126 77.0746 87.4938 84.7794C78.075 92.4842 66.2047 96.0796 54.0668 94.9067C31.593 92.732 14.478 74.6074 12.9462 52.9138H9.04773C10.5822 76.5817 29.2078 96.3933 53.6931 98.763C55.3283 98.9212 56.9608 99.0002 58.5827 99.0002C70.0236 99.0002 81.0193 95.0965 89.9717 87.7712C100.194 79.4074 106.528 67.588 107.81 54.4848C110.455 27.4402 90.4859 3.29515 63.2921 0.661858Z" fill="#3EA9F5"/>
<path d="M27.0587 75.4325C33.9652 83.7831 43.7285 88.9601 54.5493 90.0066C55.893 90.1357 57.234 90.2016 58.567 90.2016C67.9673 90.2016 76.9992 86.9937 84.3509 80.9785C92.7467 74.1093 97.9517 64.3986 99.0038 53.6361C101.177 31.4179 84.7723 11.5826 62.4337 9.42112C54.3002 8.63561 46.2224 10.262 39.0695 14.1315C38.1234 14.6429 37.7762 15.8185 38.2903 16.7595C38.8045 17.7006 39.9864 18.0459 40.9326 17.5345C47.3964 14.0366 54.703 12.5658 62.0573 13.2775C82.2572 15.2333 97.093 33.1708 95.1266 53.2618C93.1601 73.3528 75.1255 88.1113 54.9256 86.1528C45.1411 85.2065 36.3106 80.5251 30.0641 72.9732C25.2725 67.1821 22.4447 60.2312 21.814 52.9165H17.9076C18.5463 61.1274 21.6868 68.9376 27.0587 75.4325Z" fill="#2DDEED"/>
<path d="M36.3873 41.6796H32.0542V40.9125C32.0542 39.0041 30.4853 37.4516 28.5666 37.4516H25.2909C24.4084 37.4516 23.7008 36.7003 23.7644 35.8225L24.7794 21.1141C24.9888 18.5731 22.972 16.3853 20.4039 16.3853H20.396C17.8332 16.3853 15.8111 18.5731 16.0205 21.1141L17.0435 35.8225C17.1071 36.7003 16.4074 37.4516 15.5169 37.4516H12.2386C10.3119 37.4516 8.75893 39.0041 8.75893 40.9125V41.6796H4.40994C1.9744 41.6796 0 43.6381 0 46.0605V49.7086H40.7973V46.0605C40.7973 43.6381 38.8308 41.6796 36.3873 41.6796ZM20.4013 22.954C19.2325 22.954 18.2864 22.0209 18.2864 20.8584C18.2864 19.696 19.2325 18.7549 20.4013 18.7549C21.57 18.7549 22.5082 19.696 22.5082 20.8584C22.5108 22.0209 21.5727 22.954 20.4013 22.954Z" fill="#3EA9F5"/>
<path d="M45.0667 20.8555C45.0667 22.5767 44.3671 24.1398 43.2301 25.2654C42.0985 26.3909 40.5322 27.0921 38.8016 27.0921C42.2628 27.0921 45.0667 29.8809 45.0667 33.3287C45.0667 31.6074 45.7717 30.0443 46.9033 28.9188C48.0349 27.7879 49.6065 27.0921 51.3371 27.0921C49.6065 27.0921 48.0349 26.3909 46.9033 25.2654C45.7717 24.1372 45.0667 22.5767 45.0667 20.8555Z" fill="#090916"/>
<path d="M116.05 29.7223C115.061 28.7391 114.446 27.3789 114.446 25.8765C114.446 27.3789 113.837 28.7391 112.843 29.7223C111.855 30.7055 110.49 31.317 108.982 31.317C112 31.317 114.446 33.75 114.446 36.7576C114.446 35.2551 115.061 33.8949 116.05 32.9117C117.038 31.9259 118.406 31.317 119.916 31.317C118.408 31.317 117.038 30.7055 116.05 29.7223Z" fill="#3EA9F5"/>
<path d="M89.3146 4.72885C90.6265 4.72885 91.6918 3.66921 91.6918 2.36442C91.6918 1.05964 90.6265 0 89.3146 0C88.0028 0 86.9374 1.05964 86.9374 2.36442C86.9374 3.66921 88.0028 4.72885 89.3146 4.72885Z" fill="#090916"/>
<path d="M18.5516 93.0748C19.9903 93.0748 21.1567 91.9147 21.1567 90.4837C21.1567 89.0527 19.9903 87.8926 18.5516 87.8926C17.1128 87.8926 15.9464 89.0527 15.9464 90.4837C15.9464 91.9147 17.1128 93.0748 18.5516 93.0748Z" fill="#3EA9F5"/>
<path d="M56.9316 43.5059H50.693V49.7108H56.9316V43.5059Z" fill="#090916"/>
<path d="M66.4616 43.5059H60.223V49.7108H66.4616V43.5059Z" fill="#090916"/>
<path d="M66.4616 52.8398H60.223V59.0422H66.4616V52.8398Z" fill="#090916"/>
<path d="M56.9316 52.8398H50.693V59.0422H56.9316V52.8398Z" fill="#090916"/>
<path d="M134.111 66.5043C133.777 65.3313 132.932 64.704 131.737 64.704C129.926 64.704 128.888 66.2091 128.888 68.6579C128.888 71.1225 129.908 72.5749 131.737 72.5749C132.863 72.5749 133.74 71.9791 134.074 70.8615H137.063C136.449 73.4843 134.32 74.8681 131.771 74.8681C128.201 74.8681 126.004 72.5063 126.004 68.6605C126.004 64.8121 128.201 62.416 131.808 62.416C134.376 62.416 136.557 63.7972 137.066 66.5096H134.111V66.5043Z" fill="#090916"/>
<path d="M147.439 62.6924H150.253V72.3109H155.511V74.583H147.439V62.6924Z" fill="#090916"/>
<path d="M165.813 62.6924H174.394V64.9145H168.627V67.416H173.708V69.5853H168.627V72.3662H174.394V74.5883H165.813V62.6924Z" fill="#090916"/>
<path d="M192.312 72.3636H187.616L186.824 74.5857H183.993L188.356 62.6924H191.732L196.11 74.5857H193.102L192.312 72.3636ZM188.393 70.2127H191.541L190.327 66.7833L189.975 65.4364L189.606 66.7833L188.393 70.2127Z" fill="#090916"/>
<path d="M206.099 62.6924H209.069L212.851 68.9369L213.766 70.8268L213.625 62.695H216.44V74.5883H213.469L209.687 68.3438L208.773 66.438L208.913 74.5883H206.099V62.6924Z" fill="#090916"/>
<path d="M227.374 62.6924H230.189V74.5857H227.374V62.6924Z" fill="#090916"/>
<path d="M241.124 62.6924H244.095L247.876 68.9369L248.791 70.8268L248.65 62.695H251.465V74.5883H248.494L244.712 68.3438L243.798 66.438L243.938 74.5883H241.124V62.6924Z" fill="#090916"/>
<path d="M271.156 74.5861L270.909 73.2576C270.188 74.3409 268.993 74.8681 267.567 74.8681C264.21 74.8681 262.01 72.5063 262.01 68.6605C262.01 64.8121 264.207 62.416 267.811 62.416C270.379 62.416 272.558 63.7972 273.069 66.5096H270.114C269.78 65.3366 268.935 64.7093 267.74 64.7093C265.93 64.7093 264.891 66.1959 264.891 68.6632C264.891 71.1277 265.98 72.5801 267.827 72.5801C269.11 72.5801 270.183 71.879 270.377 70.2711H268.092V68.1544H273.069V74.5914H271.156V74.5861Z" fill="#090916"/>
<path d="M305.41 70.999C305.41 73.4477 303.369 74.8659 300.573 74.8659C297.743 74.8659 295.721 73.5716 295.297 70.8593H298.267C298.495 72.0323 299.322 72.6781 300.589 72.6781C301.856 72.6781 302.524 72.172 302.524 71.3495C302.524 68.6899 295.471 70.7196 295.471 66.0144C295.471 64.0217 297.141 62.4111 300.077 62.4111C302.558 62.4111 304.702 63.5841 305.07 66.3281H302.062C301.816 65.1551 301.13 64.5963 299.969 64.5963C298.986 64.5963 298.368 65.0497 298.368 65.7508C298.376 68.2892 305.41 66.1383 305.41 70.999Z" fill="#090916"/>
<path d="M315.748 62.6924H324.33V64.9145H318.563V67.416H323.646V69.5853H318.563V72.3662H324.33V74.5883H315.748V62.6924Z" fill="#090916"/>
<path d="M334.861 62.6924H339.748C342.544 62.6924 344.267 64.0921 344.267 66.2957C344.267 67.6084 343.721 68.5178 342.772 69.0766C343.318 69.4799 343.652 70.073 343.862 70.9481L344.757 74.5857H341.821L341.153 71.4726C340.925 70.4051 340.554 70.1784 339.536 70.1784H337.673V74.5857H334.859V62.6924H334.861ZM337.673 64.9145V68.009H339.626C340.806 68.009 341.368 67.3791 341.368 66.4538C341.368 65.526 340.787 64.9145 339.698 64.9145H337.673Z" fill="#090916"/>
<path d="M359.286 70.4921L359.654 71.8918L360.006 70.4921L362.784 62.6924H365.633L361.236 74.5857H357.913L353.516 62.6924H356.506L359.286 70.4921Z" fill="#090916"/>
<path d="M375.619 62.6924H378.433V74.5857H375.619V62.6924Z" fill="#090916"/>
<path d="M397.088 66.5043C396.754 65.3313 395.909 64.704 394.714 64.704C392.904 64.704 391.865 66.2091 391.865 68.6579C391.865 71.1225 392.885 72.5749 394.714 72.5749C395.84 72.5749 396.717 71.9791 397.051 70.8615H400.041C399.426 73.4843 397.298 74.8681 394.748 74.8681C391.178 74.8681 388.981 72.5063 388.981 68.6605C388.981 64.8121 391.178 62.416 394.783 62.416C397.351 62.416 399.529 63.7972 400.041 66.5096H397.088V66.5043Z" fill="#090916"/>
<path d="M410.419 62.6924H418.997V64.9145H413.231V67.416H418.314V69.5853H413.231V72.3662H418.997V74.5883H410.416V62.6924H410.419Z" fill="#090916"/>
<path d="M439.044 70.999C439.044 73.4477 437.003 74.8659 434.207 74.8659C431.377 74.8659 429.355 73.5716 428.93 70.8593H431.901C432.129 72.0323 432.956 72.6781 434.223 72.6781C435.49 72.6781 436.158 72.172 436.158 71.3495C436.158 68.6899 429.105 70.7196 429.105 66.0144C429.105 64.0217 430.775 62.4111 433.711 62.4111C436.192 62.4111 438.336 63.5841 438.704 66.3281H435.696C435.45 65.1551 434.764 64.5963 433.603 64.5963C432.62 64.5963 432.002 65.0497 432.002 65.7508C432.01 68.2892 439.044 66.1383 439.044 70.999Z" fill="#090916"/>
<path d="M126.004 39.8839C126.004 30.1705 131.943 24.1343 141.532 24.1343C151.12 24.1343 157.059 30.1732 157.059 39.8839C157.059 49.5525 151.12 55.5466 141.532 55.5466C131.943 55.5466 126.004 49.5551 126.004 39.8839ZM147.868 39.8839C147.868 34.5462 145.581 31.3514 141.534 31.3514C137.487 31.3514 135.2 34.5462 135.2 39.8839C135.2 45.1769 137.487 48.3268 141.534 48.3268C145.579 48.3294 147.868 45.1795 147.868 39.8839Z" fill="#090916"/>
<path d="M173.689 55.5498C165.421 55.5498 160.361 50.9132 160.361 43.3876V24.9678H169.335V43.3876C169.335 46.4927 170.92 48.3326 173.689 48.3326C176.504 48.3326 178.043 46.4954 178.043 43.3876V24.9678H187.017V43.3876C187.02 50.9105 181.915 55.5498 173.689 55.5498Z" fill="#090916"/>
<path d="M198.546 32.1849H189.879V24.9678H216.185V32.1876H207.519V54.7194H198.546V32.1849Z" fill="#090916"/>
<path d="M244.383 45.3983C244.383 51.7851 238.972 55.5492 231.583 55.5492C224.104 55.5492 218.608 52.0935 217.728 44.8289H227.186C227.494 47.3673 229.208 48.767 231.673 48.767C234.005 48.767 235.193 47.9367 235.193 46.4922C235.193 41.3732 218.038 45.3561 218.038 33.8028C218.038 28.3333 222.525 24.1343 230.398 24.1343C236.865 24.1343 242.716 27.1972 243.506 34.4144H233.918C233.523 32.0948 232.291 30.9139 230.003 30.9139C228.376 30.9139 227.231 31.6572 227.231 32.8381C227.229 37.9175 244.383 33.2783 244.383 45.3983Z" fill="#090916"/>
<path d="M253.492 32.1849H244.826V24.9678H271.132V32.1876H262.466V54.7194H253.492V32.1849Z" fill="#090916"/>
<path d="M289.474 50.125H279.488L277.993 54.7194H268.932L279.358 24.9678H290.136L300.562 54.7194H290.974L289.474 50.125ZM281.69 43.4298H287.322L285.43 37.5675L284.505 33.893L283.58 37.5675L281.69 43.4298Z" fill="#090916"/>
<path d="M302.762 24.9678H312.263L318.95 37.1747L321.544 42.9052L321.017 24.9678H329.99V54.7194H320.489L313.758 42.4255L311.206 36.782L311.733 54.7194H302.76V24.9678H302.762Z" fill="#090916"/>
<path d="M334.392 24.9678H346.973C356.561 24.9678 362.501 30.6561 362.501 39.8871C362.501 49.1181 356.561 54.7194 346.973 54.7194H334.392V24.9678ZM353.307 39.8845C353.307 35.0291 351.02 32.1849 346.973 32.1849H343.366V47.497H346.973C351.02 47.497 353.307 44.7425 353.307 39.8845Z" fill="#090916"/>
<path d="M366.02 24.9678H374.993V54.7194H366.02V24.9678Z" fill="#090916"/>
<path d="M379.393 24.9678H388.894L395.58 37.1747L398.175 42.9052L397.647 24.9678H406.621V54.7194H397.12L390.391 42.4255L387.839 36.782L388.366 54.7194H379.393V24.9678Z" fill="#090916"/>
<path d="M433.15 54.7163L432.445 52.0461C430.64 54.4079 427.825 55.5466 424.438 55.5466C415.905 55.5466 410.143 49.5973 410.143 39.8839C410.143 30.1705 415.905 24.1343 425.231 24.1343C432.092 24.1343 437.856 27.8088 439.044 35.1155H429.675C429.015 32.622 427.475 31.3541 425.013 31.3541C421.361 31.3541 419.339 34.5488 419.339 39.8866C419.339 45.2243 421.539 48.3294 425.321 48.3294C427.783 48.3294 429.895 47.2355 430.513 44.6549H426.071V38.0915H439.046V54.7163H433.15Z" fill="#090916"/>
</svg>
