<svg width="180" height="196" viewBox="0 0 180 196" fill="none" xmlns="http://www.w3.org/2000/svg">
<path fill-rule="evenodd" clip-rule="evenodd" d="M80.7124 10.708V0H86.0326V10.708H80.7124Z" fill="black"/>
<path fill-rule="evenodd" clip-rule="evenodd" d="M80.7124 28.9941V18.3685H86.0326V28.9941H80.7124Z" fill="black"/>
<path fill-rule="evenodd" clip-rule="evenodd" d="M87.395 11.8369H98.763V17.1571H87.395V11.8369Z" fill="black"/>
<path fill-rule="evenodd" clip-rule="evenodd" d="M67.9822 11.8369H79.3501V17.1571H67.9822V11.8369Z" fill="black"/>
<path fill-rule="evenodd" clip-rule="evenodd" d="M80.7124 10.708V0H86.0326V10.708H80.7124Z" fill="black"/>
<path fill-rule="evenodd" clip-rule="evenodd" d="M80.7124 28.9941V18.3685H86.0326V28.9941H80.7124Z" fill="black"/>
<path fill-rule="evenodd" clip-rule="evenodd" d="M157.577 47.1973V36.4894H162.897V47.1973H157.577Z" fill="black"/>
<path fill-rule="evenodd" clip-rule="evenodd" d="M157.577 65.4834V54.7754H162.897V65.4834H157.577Z" fill="black"/>
<path fill-rule="evenodd" clip-rule="evenodd" d="M164.347 48.3265H175.628V53.6467H164.347V48.3265Z" fill="black"/>
<path fill-rule="evenodd" clip-rule="evenodd" d="M144.934 48.3265H156.215V53.6467H144.934V48.3265Z" fill="black"/>
<path fill-rule="evenodd" clip-rule="evenodd" d="M157.577 47.1973V36.4894H162.897V47.1973H157.577Z" fill="black"/>
<path fill-rule="evenodd" clip-rule="evenodd" d="M157.577 65.4834V54.7754H162.897V65.4834H157.577Z" fill="black"/>
<path fill-rule="evenodd" clip-rule="evenodd" d="M104.497 58.976V49.2565H109.818V58.976H104.497Z" fill="black"/>
<path fill-rule="evenodd" clip-rule="evenodd" d="M104.585 75.803L104.498 66.0011L109.818 65.9536L109.905 75.7555L104.585 75.803Z" fill="black"/>
<path fill-rule="evenodd" clip-rule="evenodd" d="M110.918 59.858H121.324V65.1782H110.918V59.858Z" fill="black"/>
<path fill-rule="evenodd" clip-rule="evenodd" d="M93.0789 59.858H103.485V65.1782H93.0789V59.858Z" fill="black"/>
<path fill-rule="evenodd" clip-rule="evenodd" d="M104.497 58.976V49.2565H109.818V58.976H104.497Z" fill="black"/>
<path fill-rule="evenodd" clip-rule="evenodd" d="M104.585 75.803L104.498 66.0011L109.818 65.9536L109.905 75.7555L104.585 75.803Z" fill="black"/>
<path d="M163.035 90.1117H150.268C154.466 90.1117 157.789 93.3242 157.789 97.1955C157.789 101.067 154.466 104.279 150.268 104.279H163.035C167.145 104.279 170.556 101.067 170.556 97.1955C170.556 93.3242 167.145 90.1117 163.035 90.1117Z" fill="#292B2C"/>
<path fill-rule="evenodd" clip-rule="evenodd" d="M10.093 92.7719C7.34151 92.7719 5.3202 94.9016 5.3202 97.1956C5.3202 99.4895 7.34146 101.619 10.093 101.619H163.036C165.828 101.619 167.896 99.4501 167.896 97.1956C167.896 94.941 165.828 92.7719 163.036 92.7719H10.093ZM0 97.1956C0 91.7468 4.62457 87.4517 10.093 87.4517H163.036C168.463 87.4517 173.216 91.7075 173.216 97.1956C173.216 102.684 168.462 106.939 163.036 106.939H10.093C4.62461 106.939 0 102.644 0 97.1956Z" fill="black"/>
<path d="M153.504 104.279L148.607 132.449C145.634 149.582 129.894 162.102 111.443 162.102H123.947C142.398 162.102 158.139 149.582 161.112 132.449L166.009 104.279H153.504Z" fill="#292B2C"/>
<path fill-rule="evenodd" clip-rule="evenodd" d="M5.08415 102.567C5.58958 101.966 6.33465 101.619 7.11984 101.619H166.009C166.794 101.619 167.539 101.966 168.044 102.567C168.55 103.168 168.764 103.961 168.63 104.735L163.733 132.904C160.518 151.43 143.567 164.762 123.947 164.762H49.1812C29.6416 164.762 12.7046 151.426 9.39813 132.917L9.39595 132.905L9.39598 132.905L4.49904 104.735C4.36457 103.961 4.57872 103.168 5.08415 102.567ZM10.2822 106.939L14.6365 131.987C17.4538 147.741 31.9958 159.442 49.1812 159.442H123.947C141.229 159.442 155.759 147.734 158.491 131.994L158.491 131.994L162.846 106.939H10.2822Z" fill="black"/>
<path fill-rule="evenodd" clip-rule="evenodd" d="M16.4767 20.452C14.2466 20.452 12.7533 22.0905 12.7533 23.7225V90.1118H7.43311V23.7225C7.43311 18.7649 11.7112 15.1318 16.4767 15.1318H36.4144C41.2292 15.1318 45.3705 18.8109 45.3705 23.7225V32.783H40.0503V23.7225C40.0503 22.0445 38.5952 20.452 36.4144 20.452H16.4767Z" fill="black"/>
<path fill-rule="evenodd" clip-rule="evenodd" d="M22.8235 32.7825C22.8235 31.3134 24.0145 30.1224 25.4836 30.1224H59.7623C61.2314 30.1224 62.4224 31.3134 62.4224 32.7825V42.9963C62.4224 44.4654 61.2314 45.6564 59.7623 45.6564H25.4836C24.0145 45.6564 22.8235 44.4654 22.8235 42.9963V32.7825ZM28.1437 35.4426V40.3362H57.1022V35.4426H28.1437Z" fill="black"/>
<path fill-rule="evenodd" clip-rule="evenodd" d="M110.528 160.647C111.019 159.895 111.856 159.442 112.754 159.442H126.134C127.19 159.442 128.146 160.067 128.57 161.035L134.779 175.202C135.139 176.025 135.06 176.973 134.569 177.725C134.078 178.477 133.24 178.93 132.342 178.93H118.963C117.907 178.93 116.951 178.305 116.527 177.337L110.318 163.17C109.957 162.347 110.036 161.399 110.528 160.647ZM116.824 164.762L120.702 173.61H128.272L124.395 164.762H116.824Z" fill="black"/>
<path fill-rule="evenodd" clip-rule="evenodd" d="M44.6515 161.022C45.0785 160.061 46.0311 159.442 47.0824 159.442H60.4616C61.3621 159.442 62.2014 159.898 62.6921 160.653C63.1827 161.408 63.2582 162.36 62.8925 163.183L56.5964 177.35C56.1694 178.311 55.2168 178.93 54.1655 178.93H40.7863C39.8859 178.93 39.0466 178.474 38.5559 177.719C38.0652 176.964 37.9898 176.012 38.3555 175.189L44.6515 161.022ZM48.8112 164.762L44.8794 173.61H52.4367L56.3685 164.762H48.8112Z" fill="black"/>
<path fill-rule="evenodd" clip-rule="evenodd" d="M180 178.929H2.66016V173.609H180V178.929Z" fill="black"/>
<path fill-rule="evenodd" clip-rule="evenodd" d="M163.123 195.074H148.432V189.754H163.123V195.074Z" fill="black"/>
<path fill-rule="evenodd" clip-rule="evenodd" d="M132.342 195.074H83.7222V189.754H132.342V195.074Z" fill="black"/>
<path fill-rule="evenodd" clip-rule="evenodd" d="M26.2461 50.4096V47.1149H29.7929V50.4096H26.2461Z" fill="black"/>
<path fill-rule="evenodd" clip-rule="evenodd" d="M26.2461 61.5088V56.3401H29.7929V61.5088H26.2461ZM26.2461 77.0148V71.8461H29.7929V77.0148H26.2461Z" fill="black"/>
<path fill-rule="evenodd" clip-rule="evenodd" d="M26.2461 83.2747V79.98H29.7929V83.2747H26.2461Z" fill="black"/>
<path fill-rule="evenodd" clip-rule="evenodd" d="M41.0244 50.4096V47.1149H44.5712V50.4096H41.0244Z" fill="black"/>
<path fill-rule="evenodd" clip-rule="evenodd" d="M41.0244 61.5088V56.3401H44.5712V61.5088H41.0244ZM41.0244 77.0148V71.8461H44.5712V77.0148H41.0244Z" fill="black"/>
<path fill-rule="evenodd" clip-rule="evenodd" d="M41.0244 83.2747V79.98H44.5712V83.2747H41.0244Z" fill="black"/>
<path fill-rule="evenodd" clip-rule="evenodd" d="M55.8027 50.4096V47.1149H59.3495V50.4096H55.8027Z" fill="black"/>
<path fill-rule="evenodd" clip-rule="evenodd" d="M55.8027 61.5088V56.3401H59.3495V61.5088H55.8027ZM55.8027 77.0148V71.8461H59.3495V77.0148H55.8027Z" fill="black"/>
<path fill-rule="evenodd" clip-rule="evenodd" d="M55.8027 83.2747V79.98H59.3495V83.2747H55.8027Z" fill="black"/>
<path fill-rule="evenodd" clip-rule="evenodd" d="M8.05716 119.7C8.56259 119.099 9.30783 118.752 10.0932 118.752H43.0602C57.1511 118.752 68.7186 129.521 68.7186 143.075C68.7186 144.544 67.5276 145.735 66.0585 145.735H54.8654V140.415H63.1997C61.828 131.296 53.5059 124.072 43.0602 124.072H13.2571L14.6353 131.979C15.1852 134.951 16.1439 137.761 17.4676 140.415H48.5693V145.735H15.8646C14.8999 145.735 14.0108 145.213 13.5411 144.37C11.5703 140.834 10.1557 137.019 9.40113 132.932L9.39642 132.906L7.47263 121.869C7.33778 121.095 7.55173 120.301 8.05716 119.7Z" fill="black"/>
</svg>
