<svg width="204" height="47" viewBox="0 0 204 47" fill="none" xmlns="http://www.w3.org/2000/svg">
<path d="M25.7782 37.8343C26.2523 37.8801 26.7227 37.9036 27.1906 37.9036C34.5408 37.9036 40.8493 32.2714 41.5758 24.7655C41.9502 20.8979 40.805 17.1159 38.3495 14.1152C35.8954 11.1146 32.4253 9.25454 28.5796 8.87807C28.0809 8.82977 27.64 9.1951 27.5908 9.69541C27.5415 10.1957 27.906 10.6403 28.4035 10.6898C31.7677 11.0193 34.8031 12.6465 36.9507 15.2719C39.0982 17.8973 40.1006 21.2063 39.773 24.5896C39.1376 31.1568 33.6185 36.0844 27.1869 36.0844C26.7781 36.0844 26.3668 36.0646 25.9518 36.0237C19.9302 35.4343 15.2977 30.6689 14.6106 24.8608H12.7894C13.4851 31.5965 18.8208 37.1532 25.7782 37.8343Z" fill="white"/>
<path d="M29.4083 0.310831C27.3667 0.111449 25.3152 0.183276 23.3117 0.525074C22.8191 0.609285 22.4879 1.07864 22.5704 1.574C22.6541 2.06936 23.1208 2.40248 23.6134 2.31951C25.4592 2.00372 27.3494 1.93808 29.2322 2.12261C40.8739 3.26193 49.4235 13.714 48.2906 25.4218C47.7414 31.0937 45.0299 36.2107 40.6535 39.8306C36.2771 43.4504 30.7616 45.1396 25.1218 44.5885C14.6796 43.5668 6.72717 35.0516 6.01542 24.8596H4.20403C4.91701 35.9791 13.5713 45.2869 24.9482 46.4003C25.708 46.4746 26.4665 46.5117 27.2201 46.5117C32.5361 46.5117 37.6452 44.6777 41.8048 41.2361C46.5544 37.3067 49.4974 31.7537 50.0934 25.5977C51.3223 12.8917 42.0437 1.54799 29.4083 0.310831Z" fill="#3EA9F5"/>
<path d="M12.5727 35.4392C15.7817 39.3625 20.3182 41.7947 25.346 42.2863C25.9703 42.347 26.5934 42.378 27.2128 42.378C31.5806 42.378 35.7772 40.8708 39.1931 38.0448C43.0942 34.8175 45.5127 30.2553 46.0015 25.1989C47.0113 14.7605 39.3889 5.44151 29.0094 4.42603C25.2303 4.05699 21.477 4.82108 18.1534 6.63905C17.7138 6.87929 17.5525 7.43162 17.7914 7.87373C18.0303 8.31583 18.5795 8.47806 19.0191 8.23782C22.0225 6.59446 25.4174 5.90344 28.8346 6.2378C38.2203 7.15669 45.1137 15.584 44.2 25.0231C43.2863 34.4621 34.9066 41.3959 25.5209 40.4758C20.9746 40.0312 16.8715 37.8318 13.9691 34.2838C11.7427 31.563 10.4288 28.2974 10.1358 24.8608H8.32068C8.61745 28.7184 10.0767 32.3878 12.5727 35.4392Z" fill="#2DDEED"/>
<path d="M16.9071 19.5815H14.8938V19.2212C14.8938 18.3246 14.1648 17.5951 13.2733 17.5951H11.7513C11.3412 17.5951 11.0124 17.2422 11.042 16.8298L11.5136 9.91956C11.6109 8.72575 10.6738 7.69788 9.48055 7.69788H9.47686C8.2861 7.69788 7.34654 8.72575 7.44382 9.91956L7.91914 16.8298C7.94869 17.2422 7.6236 17.5951 7.20985 17.5951H5.68661C4.79138 17.5951 4.06978 18.3246 4.06978 19.2212V19.5815H2.04905C0.917394 19.5815 0 20.5017 0 21.6398V23.3537H18.9562V21.6398C18.9562 20.5017 18.0425 19.5815 16.9071 19.5815ZM9.47932 10.784C8.93628 10.784 8.49667 10.3456 8.49667 9.79944C8.49667 9.2533 8.93628 8.8112 9.47932 8.8112C10.0224 8.8112 10.4583 9.2533 10.4583 9.79944C10.4595 10.3456 10.0236 10.784 9.47932 10.784Z" fill="#3EA9F5"/>
<path d="M20.94 9.79819C20.94 10.6069 20.6149 11.3412 20.0866 11.87C19.5608 12.3988 18.8331 12.7282 18.0289 12.7282C19.6372 12.7282 20.94 14.0385 20.94 15.6583C20.94 14.8496 21.2675 14.1152 21.7933 13.5864C22.3191 13.0552 23.0494 12.7282 23.8535 12.7282C23.0494 12.7282 22.3191 12.3988 21.7933 11.87C21.2675 11.34 20.94 10.6069 20.94 9.79819Z" fill="white"/>
<path d="M53.9218 13.9642C53.4625 13.5022 53.1768 12.8632 53.1768 12.1573C53.1768 12.8632 52.8935 13.5022 52.4318 13.9642C51.9725 14.4261 51.3383 14.7134 50.6376 14.7134C52.0402 14.7134 53.1768 15.8564 53.1768 17.2695C53.1768 16.5636 53.4625 15.9246 53.9218 15.4626C54.3811 14.9995 55.0165 14.7134 55.7184 14.7134C55.0177 14.7134 54.3811 14.4261 53.9218 13.9642Z" fill="#3EA9F5"/>
<path d="M41.4995 2.22168C42.109 2.22168 42.604 1.72385 42.604 1.11084C42.604 0.497836 42.109 0 41.4995 0C40.8899 0 40.3949 0.497836 40.3949 1.11084C40.3949 1.72385 40.8899 2.22168 41.4995 2.22168Z" fill="white"/>
<path d="M8.61974 43.7278C9.28826 43.7278 9.83021 43.1828 9.83021 42.5105C9.83021 41.8381 9.28826 41.2931 8.61974 41.2931C7.95122 41.2931 7.40927 41.8381 7.40927 42.5105C7.40927 43.1828 7.95122 43.7278 8.61974 43.7278Z" fill="#3EA9F5"/>
<path d="M26.4529 20.4398H23.5542V23.3549H26.4529V20.4398Z" fill="white"/>
<path d="M30.881 20.4398H27.9823V23.3549H30.881V20.4398Z" fill="white"/>
<path d="M30.881 24.8249H27.9823V27.7389H30.881V24.8249Z" fill="white"/>
<path d="M26.4529 24.8249H23.5542V27.7389H26.4529V24.8249Z" fill="white"/>
<path d="M62.3139 31.245C62.1587 30.6939 61.7659 30.3992 61.2105 30.3992C60.3695 30.3992 59.8868 31.1063 59.8868 32.2568C59.8868 33.4147 60.3609 34.0971 61.2105 34.0971C61.7339 34.0971 62.1415 33.8172 62.2966 33.2921H63.6856C63.4 34.5243 62.4111 35.1745 61.2265 35.1745C59.5678 35.1745 58.547 34.0649 58.547 32.258C58.547 30.45 59.5678 29.3243 61.2438 29.3243C62.437 29.3243 63.4504 29.9732 63.6869 31.2475H62.3139V31.245Z" fill="#2DDEED"/>
<path d="M68.5066 29.454H69.8143V33.973H72.2574V35.0405H68.5066V29.454Z" fill="#2DDEED"/>
<path d="M77.0439 29.454H81.0311V30.498H78.3516V31.6732H80.7122V32.6924H78.3516V33.999H81.0311V35.0429H77.0439V29.454Z" fill="#2DDEED"/>
<path d="M89.3566 33.9977H87.1746L86.8064 35.0417H85.4913L87.5182 29.454H89.087L91.1212 35.0417H89.7236L89.3566 33.9977ZM87.5354 32.9872H88.9983L88.4343 31.376L88.2705 30.7432L88.0994 31.376L87.5354 32.9872Z" fill="#2DDEED"/>
<path d="M95.7624 29.454H97.1428L98.9001 32.3878L99.3249 33.2757L99.2596 29.4553H100.567V35.0429H99.187L97.4298 32.1092L97.0049 31.2138L97.0702 35.0429H95.7624V29.454Z" fill="#2DDEED"/>
<path d="M105.648 29.454H106.956V35.0417H105.648V29.454Z" fill="#2DDEED"/>
<path d="M112.037 29.454H113.417L115.174 32.3878L115.599 33.2757L115.534 29.4553H116.842V35.0429H115.461L113.704 32.1092L113.279 31.2138L113.344 35.0429H112.037V29.454Z" fill="#2DDEED"/>
<path d="M125.991 35.0417L125.876 34.4175C125.541 34.9265 124.986 35.1742 124.323 35.1742C122.763 35.1742 121.741 34.0646 121.741 32.2578C121.741 30.4497 122.762 29.324 124.437 29.324C125.63 29.324 126.642 29.9729 126.88 31.2472H125.507C125.352 30.6962 124.959 30.4014 124.403 30.4014C123.562 30.4014 123.08 31.0999 123.08 32.259C123.08 33.4169 123.586 34.0993 124.444 34.0993C125.04 34.0993 125.539 33.7699 125.629 33.0144H124.567V32.02H126.88V35.0442H125.991V35.0417Z" fill="#2DDEED"/>
<path d="M141.907 33.3562C141.907 34.5067 140.958 35.173 139.659 35.173C138.344 35.173 137.405 34.5649 137.208 33.2906H138.588C138.694 33.8417 139.078 34.1451 139.667 34.1451C140.255 34.1451 140.566 33.9073 140.566 33.5209C140.566 32.2714 137.289 33.225 137.289 31.0144C137.289 30.0782 138.065 29.3215 139.429 29.3215C140.582 29.3215 141.578 29.8726 141.749 31.1618H140.351C140.237 30.6107 139.918 30.3482 139.379 30.3482C138.922 30.3482 138.635 30.5612 138.635 30.8906C138.638 32.0832 141.907 31.0726 141.907 33.3562Z" fill="#2DDEED"/>
<path d="M146.71 29.454H150.698V30.498H148.018V31.6732H150.38V32.6924H148.018V33.999H150.698V35.0429H146.71V29.454Z" fill="#2DDEED"/>
<path d="M155.591 29.454H157.862C159.161 29.454 159.961 30.1116 159.961 31.1469C159.961 31.7637 159.708 32.1909 159.267 32.4534C159.521 32.6429 159.676 32.9216 159.773 33.3327L160.189 35.0417H158.825L158.515 33.5791C158.409 33.0776 158.236 32.9711 157.763 32.9711H156.898V35.0417H155.59V29.454H155.591ZM156.898 30.498V31.9519H157.805C158.353 31.9519 158.614 31.6559 158.614 31.2212C158.614 30.7853 158.345 30.498 157.838 30.498H156.898Z" fill="#2DDEED"/>
<path d="M166.94 33.1185L167.111 33.776L167.275 33.1185L168.565 29.454H169.889L167.846 35.0417H166.302L164.259 29.454H165.648L166.94 33.1185Z" fill="#2DDEED"/>
<path d="M174.529 29.454H175.837V35.0417H174.529V29.454Z" fill="#2DDEED"/>
<path d="M184.505 31.2448C184.349 30.6937 183.957 30.3989 183.401 30.3989C182.56 30.3989 182.077 31.1061 182.077 32.2565C182.077 33.4144 182.552 34.0968 183.401 34.0968C183.925 34.0968 184.332 33.8169 184.487 33.2918H185.876C185.591 34.524 184.602 35.1742 183.417 35.1742C181.759 35.1742 180.738 34.0646 180.738 32.2578C180.738 30.4497 181.759 29.324 183.433 29.324C184.626 29.324 185.639 29.9729 185.876 31.2472H184.505V31.2448Z" fill="#2DDEED"/>
<path d="M190.698 29.454H194.684V30.498H192.005V31.6732H194.367V32.6924H192.005V33.999H194.684V35.0429H190.697V29.454H190.698Z" fill="#2DDEED"/>
<path d="M203.999 33.3562C203.999 34.5067 203.051 35.173 201.752 35.173C200.436 35.173 199.497 34.5649 199.3 33.2906H200.68C200.786 33.8417 201.17 34.1451 201.759 34.1451C202.348 34.1451 202.658 33.9073 202.658 33.5209C202.658 32.2714 199.381 33.225 199.381 31.0144C199.381 30.0782 200.157 29.3215 201.521 29.3215C202.674 29.3215 203.67 29.8726 203.841 31.1618H202.444C202.329 30.6107 202.01 30.3482 201.471 30.3482C201.014 30.3482 200.727 30.5612 200.727 30.8906C200.731 32.0832 203.999 31.0726 203.999 33.3562Z" fill="#2DDEED"/>
<path d="M58.5469 18.7382C58.5469 14.1747 61.3065 11.3388 65.7617 11.3388C70.2169 11.3388 72.9765 14.1759 72.9765 18.7382C72.9765 23.2806 70.2169 26.0968 65.7617 26.0968C61.3065 26.0968 58.5469 23.2819 58.5469 18.7382ZM68.706 18.7382C68.706 16.2304 67.6433 14.7295 65.7629 14.7295C63.8826 14.7295 62.8199 16.2304 62.8199 18.7382C62.8199 21.2249 63.8826 22.7048 65.7629 22.7048C67.6421 22.706 68.706 21.2261 68.706 18.7382Z" fill="white"/>
<path d="M80.7036 26.098C76.8617 26.098 74.5109 23.9196 74.5109 20.384V11.7301H78.6804V20.384C78.6804 21.8429 79.4168 22.7073 80.7036 22.7073C82.0114 22.7073 82.7268 21.8441 82.7268 20.384V11.7301H86.8963V20.384C86.8976 23.9184 84.5259 26.098 80.7036 26.098Z" fill="white"/>
<path d="M92.2529 15.1208H88.2262V11.7301H100.449V15.1221H96.4225V25.7079H92.2529V15.1208Z" fill="white"/>
<path d="M113.551 21.3289C113.551 24.3296 111.037 26.098 107.604 26.098C104.129 26.098 101.575 24.4745 101.166 21.0614H105.561C105.704 22.254 106.5 22.9116 107.645 22.9116C108.729 22.9116 109.281 22.5215 109.281 21.8429C109.281 19.4379 101.31 21.3091 101.31 15.8812C101.31 13.3115 103.395 11.3388 107.053 11.3388C110.058 11.3388 112.777 12.7778 113.144 16.1685H108.688C108.505 15.0787 107.932 14.5239 106.87 14.5239C106.114 14.5239 105.582 14.8732 105.582 15.428C105.58 17.8144 113.551 15.6348 113.551 21.3289Z" fill="white"/>
<path d="M117.784 15.1208H113.757V11.7301H125.98V15.1221H121.953V25.7079H117.784V15.1208Z" fill="white"/>
<path d="M134.502 23.5494H129.862L129.168 25.7079H124.958L129.802 11.7301H134.81L139.654 25.7079H135.199L134.502 23.5494ZM130.886 20.4038H133.502L132.623 17.6496L132.193 15.9233L131.764 17.6496L130.886 20.4038Z" fill="white"/>
<path d="M140.677 11.7301H145.091L148.198 17.4651L149.403 20.1574L149.158 11.7301H153.328V25.7079H148.913L145.786 19.932L144.6 17.2806L144.845 25.7079H140.675V11.7301H140.677Z" fill="white"/>
<path d="M155.373 11.7301H161.219C165.674 11.7301 168.434 14.4026 168.434 18.7394C168.434 23.0763 165.674 25.7079 161.219 25.7079H155.373V11.7301ZM164.162 18.7382C164.162 16.4571 163.099 15.1208 161.219 15.1208H159.543V22.3147H161.219C163.099 22.3147 164.162 21.0206 164.162 18.7382Z" fill="white"/>
<path d="M170.069 11.7301H174.238V25.7079H170.069V11.7301Z" fill="white"/>
<path d="M176.282 11.7301H180.697L183.804 17.4651L185.009 20.1574L184.764 11.7301H188.934V25.7079H184.519L181.393 19.932L180.207 17.2806L180.452 25.7079H176.282V11.7301Z" fill="white"/>
<path d="M201.26 25.7067L200.933 24.4522C200.094 25.5618 198.786 26.0968 197.213 26.0968C193.247 26.0968 190.57 23.3017 190.57 18.7382C190.57 14.1747 193.247 11.3388 197.581 11.3388C200.769 11.3388 203.447 13.0651 203.999 16.4979H199.646C199.339 15.3264 198.624 14.7307 197.48 14.7307C195.783 14.7307 194.843 16.2317 194.843 18.7394C194.843 21.2472 195.865 22.706 197.623 22.706C198.767 22.706 199.748 22.1921 200.035 20.9797H197.971V17.8961H204V25.7067H201.26Z" fill="white"/>
</svg>
